<svg xmlns="http://www.w3.org/2000/svg" xmlns:xlink="http://www.w3.org/1999/xlink" width="470" height="468" id="clock"><defs><filter id="a" width="111.8%" height="111.9%" x="-5.9%" y="-3.9%" filterUnits="objectBoundingBox"><feOffset dy="5" in="SourceAlpha" result="shadowOffsetOuter1"></feOffset><feGaussianBlur in="shadowOffsetOuter1" result="shadowBlurOuter1" stdDeviation="4"></feGaussianBlur><feColorMatrix in="shadowBlurOuter1" result="shadowMatrixOuter1" values="0 0 0 0 0 0 0 0 0 0 0 0 0 0 0 0 0 0 0.078125 0"></feColorMatrix><feOffset dy="4" in="SourceAlpha" result="shadowOffsetOuter2"></feOffset><feGaussianBlur in="shadowOffsetOuter2" result="shadowBlurOuter2" stdDeviation="5.5"></feGaussianBlur><feColorMatrix in="shadowBlurOuter2" result="shadowMatrixOuter2" values="0 0 0 0 0 0 0 0 0 0 0 0 0 0 0 0 0 0 0.210824275 0"></feColorMatrix><feMerge><feMergeNode in="shadowMatrixOuter1"></feMergeNode><feMergeNode in="shadowMatrixOuter2"></feMergeNode></feMerge></filter><path id="b" d="M9.635 132.808C24.782 59.782 71.388 19.109 144.085 6.822c53.74-9.081 107.5-9.196 161.15.255 74.852 13.185 119.85 56.23 134.185 130.36 11.075 57.29 11.249 115.191-.174 172.427-15.324 72.52-63.132 117.285-135.561 129.527-53.74 9.08-107.5 9.195-161.15-.255-74.852-13.186-120.05-58.38-134.384-132.509-11.64-57.668-10.52-115.935 1.484-173.82z"></path></defs><g fill="none" fill-rule="evenodd"><g transform="translate(11 7)"><use fill="#000" filter="url(#a)" xlink:href="#b"></use><use fill="#F8F9F9" xlink:href="#b"></use></g><path fill="#4B4B4B" d="M335.496 332.087c-52.994 54.877-140.442 56.404-195.319 3.41-54.877-52.995-56.403-140.442-3.41-195.319 16.856-17.454 37.2-29.503 58.87-36.125l.358 20.549c-16.574 5.936-32.073 15.667-45.13 29.189-45.4 47.011-44.092 121.923 2.92 167.323 47.011 45.398 121.924 44.091 167.323-2.92 45.399-47.012 44.091-121.926-2.92-167.324-12.29-11.868-26.488-20.537-41.565-26.04l-.367-20.902c20.316 6.147 39.513 17.082 55.831 32.84 54.877 52.994 56.403 140.442 3.409 195.32zM225.334 144.001h18v92h-18v-92z"></path><path fill="#09CFDB" d="M231 240.586c-4.617-1.306-8-5.55-8-10.586 0-5.035 3.383-9.28 8-10.586V75h6v144.414c4.617 1.306 8 5.55 8 10.586 0 5.035-3.383 9.28-8 10.586V264h-6v-23.414z"></path></g></svg>